<svg xmlns="http://www.w3.org/2000/svg" width="800" height="600" viewBox="0 0 800 600">
  <rect width="800" height="600" fill="#e0f2ff" />
  
  <!-- City skyline -->
  <g transform="translate(400, 300)">
    <!-- Background gradient for sky -->
    <defs>
      <linearGradient id="skyGradient" x1="0%" y1="0%" x2="0%" y2="100%">
        <stop offset="0%" style="stop-color:#4b79a1;stop-opacity:1" />
        <stop offset="100%" style="stop-color:#79c1ff;stop-opacity:1" />
      </linearGradient>
    </defs>
    <rect x="-400" y="-300" width="800" height="450" fill="url(#skyGradient)" />
    
    <!-- Ground -->
    <rect x="-400" y="150" width="800" height="150" fill="#365d7d" />
    
    <!-- Buildings -->
    <g>
      <!-- Building 1 -->
      <rect x="-350" y="-40" width="80" height="190" fill="#204060" />
      <g fill="#79c1ff" transform="translate(-350, -40)">
        <rect x="10" y="10" width="15" height="20" />
        <rect x="35" y="10" width="15" height="20" />
        <rect x="55" y="10" width="15" height="20" />
        <rect x="10" y="40" width="15" height="20" />
        <rect x="35" y="40" width="15" height="20" />
        <rect x="55" y="40" width="15" height="20" />
        <rect x="10" y="70" width="15" height="20" />
        <rect x="35" y="70" width="15" height="20" />
        <rect x="55" y="70" width="15" height="20" />
        <rect x="10" y="100" width="15" height="20" />
        <rect x="35" y="100" width="15" height="20" />
        <rect x="55" y="100" width="15" height="20" />
        <rect x="10" y="130" width="15" height="20" />
        <rect x="35" y="130" width="15" height="20" />
        <rect x="55" y="130" width="15" height="20" />
      </g>
      
      <!-- Building 2 (skyscraper) -->
      <rect x="-240" y="-150" width="60" height="300" fill="#2d5a80" />
      <g fill="#79c1ff" transform="translate(-240, -150)">
        <rect x="10" y="10" width="10" height="15" />
        <rect x="30" y="10" width="10" height="15" />
        <rect x="10" y="35" width="10" height="15" />
        <rect x="30" y="35" width="10" height="15" />
        <rect x="10" y="60" width="10" height="15" />
        <rect x="30" y="60" width="10" height="15" />
        <rect x="10" y="85" width="10" height="15" />
        <rect x="30" y="85" width="10" height="15" />
        <rect x="10" y="110" width="10" height="15" />
        <rect x="30" y="110" width="10" height="15" />
        <rect x="10" y="135" width="10" height="15" />
        <rect x="30" y="135" width="10" height="15" />
        <rect x="10" y="160" width="10" height="15" />
        <rect x="30" y="160" width="10" height="15" />
        <rect x="10" y="185" width="10" height="15" />
        <rect x="30" y="185" width="10" height="15" />
        <rect x="10" y="210" width="10" height="15" />
        <rect x="30" y="210" width="10" height="15" />
        <rect x="10" y="235" width="10" height="15" />
        <rect x="30" y="235" width="10" height="15" />
        <rect x="10" y="260" width="10" height="15" />
        <rect x="30" y="260" width="10" height="15" />
      </g>
      
      <!-- Building 3 -->
      <rect x="-150" y="-80" width="90" height="230" fill="#183050" />
      <g fill="#79c1ff" transform="translate(-150, -80)">
        <rect x="10" y="10" width="20" height="25" />
        <rect x="40" y="10" width="20" height="25" />
        <rect x="70" y="10" width="10" height="25" />
        <rect x="10" y="45" width="20" height="25" />
        <rect x="40" y="45" width="20" height="25" />
        <rect x="70" y="45" width="10" height="25" />
        <rect x="10" y="80" width="20" height="25" />
        <rect x="40" y="80" width="20" height="25" />
        <rect x="70" y="80" width="10" height="25" />
        <rect x="10" y="115" width="20" height="25" />
        <rect x="40" y="115" width="20" height="25" />
        <rect x="70" y="115" width="10" height="25" />
        <rect x="10" y="150" width="20" height="25" />
        <rect x="40" y="150" width="20" height="25" />
        <rect x="70" y="150" width="10" height="25" />
        <rect x="10" y="185" width="20" height="25" />
        <rect x="40" y="185" width="20" height="25" />
        <rect x="70" y="185" width="10" height="25" />
      </g>
      
      <!-- Building 4 (central tower) -->
      <rect x="-30" y="-200" width="70" height="350" fill="#2c4c6d" />
      <rect x="-15" y="-230" width="40" height="30" fill="#2c4c6d" />
      <circle cx="5" cy="-240" r="10" fill="#5d9cec" />
      <g fill="#79c1ff" transform="translate(-30, -200)">
        <rect x="10" y="20" width="15" height="20" />
        <rect x="35" y="20" width="15" height="20" />
        <rect x="10" y="50" width="15" height="20" />
        <rect x="35" y="50" width="15" height="20" />
        <rect x="10" y="80" width="15" height="20" />
        <rect x="35" y="80" width="15" height="20" />
        <rect x="10" y="110" width="15" height="20" />
        <rect x="35" y="110" width="15" height="20" />
        <rect x="10" y="140" width="15" height="20" />
        <rect x="35" y="140" width="15" height="20" />
        <rect x="10" y="170" width="15" height="20" />
        <rect x="35" y="170" width="15" height="20" />
        <rect x="10" y="200" width="15" height="20" />
        <rect x="35" y="200" width="15" height="20" />
        <rect x="10" y="230" width="15" height="20" />
        <rect x="35" y="230" width="15" height="20" />
        <rect x="10" y="260" width="15" height="20" />
        <rect x="35" y="260" width="15" height="20" />
        <rect x="10" y="290" width="15" height="20" />
        <rect x="35" y="290" width="15" height="20" />
      </g>
      
      <!-- Building 5 -->
      <rect x="70" y="-120" width="100" height="270" fill="#204060" />
      <g fill="#79c1ff" transform="translate(70, -120)">
        <rect x="10" y="15" width="20" height="25" />
        <rect x="40" y="15" width="20" height="25" />
        <rect x="70" y="15" width="20" height="25" />
        <rect x="10" y="50" width="20" height="25" />
        <rect x="40" y="50" width="20" height="25" />
        <rect x="70" y="50" width="20" height="25" />
        <rect x="10" y="85" width="20" height="25" />
        <rect x="40" y="85" width="20" height="25" />
        <rect x="70" y="85" width="20" height="25" />
        <rect x="10" y="120" width="20" height="25" />
        <rect x="40" y="120" width="20" height="25" />
        <rect x="70" y="120" width="20" height="25" />
        <rect x="10" y="155" width="20" height="25" />
        <rect x="40" y="155" width="20" height="25" />
        <rect x="70" y="155" width="20" height="25" />
        <rect x="10" y="190" width="20" height="25" />
        <rect x="40" y="190" width="20" height="25" />
        <rect x="70" y="190" width="20" height="25" />
        <rect x="10" y="225" width="20" height="25" />
        <rect x="40" y="225" width="20" height="25" />
        <rect x="70" y="225" width="20" height="25" />
      </g>
      
      <!-- Building 6 -->
      <rect x="200" y="-60" width="70" height="210" fill="#183050" />
      <g fill="#79c1ff" transform="translate(200, -60)">
        <rect x="10" y="10" width="15" height="20" />
        <rect x="35" y="10" width="15" height="20" />
        <rect x="10" y="40" width="15" height="20" />
        <rect x="35" y="40" width="15" height="20" />
        <rect x="10" y="70" width="15" height="20" />
        <rect x="35" y="70" width="15" height="20" />
        <rect x="10" y="100" width="15" height="20" />
        <rect x="35" y="100" width="15" height="20" />
        <rect x="10" y="130" width="15" height="20" />
        <rect x="35" y="130" width="15" height="20" />
        <rect x="10" y="160" width="15" height="20" />
        <rect x="35" y="160" width="15" height="20" />
      </g>
      
      <!-- Building 7 -->
      <rect x="300" y="-100" width="80" height="250" fill="#2d5a80" />
      <g fill="#79c1ff" transform="translate(300, -100)">
        <rect x="10" y="10" width="15" height="20" />
        <rect x="35" y="10" width="15" height="20" />
        <rect x="55" y="10" width="15" height="20" />
        <rect x="10" y="40" width="15" height="20" />
        <rect x="35" y="40" width="15" height="20" />
        <rect x="55" y="40" width="15" height="20" />
        <rect x="10" y="70" width="15" height="20" />
        <rect x="35" y="70" width="15" height="20" />
        <rect x="55" y="70" width="15" height="20" />
        <rect x="10" y="100" width="15" height="20" />
        <rect x="35" y="100" width="15" height="20" />
        <rect x="55" y="100" width="15" height="20" />
        <rect x="10" y="130" width="15" height="20" />
        <rect x="35" y="130" width="15" height="20" />
        <rect x="55" y="130" width="15" height="20" />
        <rect x="10" y="160" width="15" height="20" />
        <rect x="35" y="160" width="15" height="20" />
        <rect x="55" y="160" width="15" height="20" />
        <rect x="10" y="190" width="15" height="20" />
        <rect x="35" y="190" width="15" height="20" />
        <rect x="55" y="190" width="15" height="20" />
      </g>
    </g>
    
    <!-- Camera surveillance elements -->
    <g>
      <!-- Camera 1 -->
      <circle cx="-250" cy="-170" r="20" fill="#333333" stroke="#555555" stroke-width="3" />
      <polygon points="-250,-170 -230,-160 -230,-180" fill="#555555" />
      <circle cx="-250" cy="-170" r="8" fill="#5d9cec" />
      <circle cx="-250" cy="-170" r="3" fill="#333333" />
      
      <!-- Surveillance circles with pulsing effect -->
      <circle cx="-250" cy="-170" r="40" fill="none" stroke="#5d9cec" stroke-width="2" opacity="0.3">
        <animate attributeName="r" from="25" to="60" dur="3s" repeatCount="indefinite" />
        <animate attributeName="opacity" from="0.3" to="0" dur="3s" repeatCount="indefinite" />
      </circle>
      
      <!-- Camera 2 -->
      <circle cx="150" cy="-200" r="20" fill="#333333" stroke="#555555" stroke-width="3" />
      <polygon points="150,-200 170,-190 170,-210" fill="#555555" />
      <circle cx="150" cy="-200" r="8" fill="#5d9cec" />
      <circle cx="150" cy="-200" r="3" fill="#333333" />
      
      <!-- Surveillance circles with pulsing effect -->
      <circle cx="150" cy="-200" r="40" fill="none" stroke="#5d9cec" stroke-width="2" opacity="0.3">
        <animate attributeName="r" from="25" to="60" dur="4s" repeatCount="indefinite" />
        <animate attributeName="opacity" from="0.3" to="0" dur="4s" repeatCount="indefinite" />
      </circle>
      
      <!-- Data lines connecting cameras -->
      <line x1="-250" y1="-170" x2="150" y2="-200" stroke="#5d9cec" stroke-width="2" stroke-dasharray="10,5" />
      <line x1="-250" y1="-170" x2="5" y2="-240" stroke="#5d9cec" stroke-width="2" stroke-dasharray="10,5" />
      <line x1="150" y1="-200" x2="5" y2="-240" stroke="#5d9cec" stroke-width="2" stroke-dasharray="10,5" />
      
      <!-- Smart grid indicators -->
      <circle cx="-150" cy="100" r="5" fill="#5d9cec">
        <animate attributeName="opacity" values="1;0.3;1" dur="2s" repeatCount="indefinite" />
      </circle>
      <circle cx="70" cy="80" r="5" fill="#5d9cec">
        <animate attributeName="opacity" values="1;0.3;1" dur="3s" repeatCount="indefinite" />
      </circle>
      <circle cx="250" cy="100" r="5" fill="#5d9cec">
        <animate attributeName="opacity" values="1;0.3;1" dur="2.5s" repeatCount="indefinite" />
      </circle>
    </g>
  </g>
</svg>