<svg xmlns="http://www.w3.org/2000/svg" width="800" height="600" viewBox="0 0 800 600">
  <rect width="800" height="600" fill="#e0e0e0" />
  
  <!-- Background Grid Pattern -->
  <pattern id="grid" width="50" height="50" patternUnits="userSpaceOnUse">
    <rect width="50" height="50" fill="none" stroke="#c0c0c0" stroke-width="1" />
  </pattern>
  <rect width="800" height="600" fill="url(#grid)" />
  
  <!-- Neural Network -->
  <g transform="translate(400, 300)">
    <!-- Input Layer -->
    <g transform="translate(-250, 0)">
      <circle cx="0" cy="-120" r="25" fill="#404040" />
      <circle cx="0" cy="-40" r="25" fill="#404040" />
      <circle cx="0" cy="40" r="25" fill="#404040" />
      <circle cx="0" cy="120" r="25" fill="#404040" />
    </g>
    
    <!-- Hidden Layer 1 -->
    <g transform="translate(-125, 0)">
      <circle cx="0" cy="-150" r="25" fill="#707070" />
      <circle cx="0" cy="-75" r="25" fill="#707070" />
      <circle cx="0" cy="0" r="25" fill="#707070" />
      <circle cx="0" cy="75" r="25" fill="#707070" />
      <circle cx="0" cy="150" r="25" fill="#707070" />
    </g>
    
    <!-- Hidden Layer 2 -->
    <g transform="translate(0, 0)">
      <circle cx="0" cy="-160" r="25" fill="#909090" />
      <circle cx="0" cy="-80" r="25" fill="#909090" />
      <circle cx="0" cy="0" r="25" fill="#909090" />
      <circle cx="0" cy="80" r="25" fill="#909090" />
      <circle cx="0" cy="160" r="25" fill="#909090" />
    </g>
    
    <!-- Output Layer -->
    <g transform="translate(125, 0)">
      <circle cx="0" cy="-120" r="25" fill="#b0b0b0" />
      <circle cx="0" cy="-40" r="25" fill="#b0b0b0" />
      <circle cx="0" cy="40" r="25" fill="#b0b0b0" />
      <circle cx="0" cy="120" r="25" fill="#b0b0b0" />
    </g>
    
    <!-- Final Output Layer -->
    <g transform="translate(250, 0)">
      <circle cx="0" cy="-60" r="25" fill="#d0d0d0" />
      <circle cx="0" cy="60" r="25" fill="#d0d0d0" />
    </g>
    
    <!-- Connections (simplified) -->
    <g stroke="#a0a0a0" stroke-width="2" opacity="0.6">
      <!-- Input to Hidden 1 -->
      <line x1="-250" y1="-120" x2="-125" y2="-150" />
      <line x1="-250" y1="-120" x2="-125" y2="-75" />
      <line x1="-250" y1="-120" x2="-125" y2="0" />
      <line x1="-250" y1="-40" x2="-125" y2="-150" />
      <line x1="-250" y1="-40" x2="-125" y2="-75" />
      <line x1="-250" y1="-40" x2="-125" y2="0" />
      <line x1="-250" y1="-40" x2="-125" y2="75" />
      <line x1="-250" y1="40" x2="-125" y2="-75" />
      <line x1="-250" y1="40" x2="-125" y2="0" />
      <line x1="-250" y1="40" x2="-125" y2="75" />
      <line x1="-250" y1="40" x2="-125" y2="150" />
      <line x1="-250" y1="120" x2="-125" y2="0" />
      <line x1="-250" y1="120" x2="-125" y2="75" />
      <line x1="-250" y1="120" x2="-125" y2="150" />
      
      <!-- Hidden 1 to Hidden 2 -->
      <line x1="-125" y1="-150" x2="0" y2="-160" />
      <line x1="-125" y1="-150" x2="0" y2="-80" />
      <line x1="-125" y1="-75" x2="0" y2="-160" />
      <line x1="-125" y1="-75" x2="0" y2="-80" />
      <line x1="-125" y1="-75" x2="0" y2="0" />
      <line x1="-125" y1="0" x2="0" y2="-80" />
      <line x1="-125" y1="0" x2="0" y2="0" />
      <line x1="-125" y1="0" x2="0" y2="80" />
      <line x1="-125" y1="75" x2="0" y2="0" />
      <line x1="-125" y1="75" x2="0" y2="80" />
      <line x1="-125" y1="75" x2="0" y2="160" />
      <line x1="-125" y1="150" x2="0" y2="80" />
      <line x1="-125" y1="150" x2="0" y2="160" />
      
      <!-- Hidden 2 to Output -->
      <line x1="0" y1="-160" x2="125" y2="-120" />
      <line x1="0" y1="-80" x2="125" y2="-120" />
      <line x1="0" y1="-80" x2="125" y2="-40" />
      <line x1="0" y1="0" x2="125" y2="-40" />
      <line x1="0" y1="0" x2="125" y2="40" />
      <line x1="0" y1="80" x2="125" y2="40" />
      <line x1="0" y1="80" x2="125" y2="120" />
      <line x1="0" y1="160" x2="125" y2="120" />
      
      <!-- Output to Final Output -->
      <line x1="125" y1="-120" x2="250" y2="-60" />
      <line x1="125" y1="-40" x2="250" y2="-60" />
      <line x1="125" y1="40" x2="250" y2="60" />
      <line x1="125" y1="120" x2="250" y2="60" />
    </g>
  </g>
</svg>